<svg width="160" height="160" viewBox="0 0 160 160" fill="none" xmlns="http://www.w3.org/2000/svg">
<path d="M38.7481 107.139C38.7481 107.139 48.7758 122.399 76.6805 122.399C104.585 122.399 120.281 102.343 120.281 84.0304C120.281 65.7184 105.702 55.0913 103.958 53.347L100.606 59.233L87.0756 40.839H110.906L108.127 46.4798C108.127 46.4798 140.664 61.6856 140.664 95.0399C140.664 128.394 111.887 149.976 83.7645 149.976C75.2626 149.976 61.5287 146.379 59.2399 144.744C59.2399 144.744 74.4454 146.134 78.3695 146.134C101.587 146.134 135.104 126.432 135.104 95.5303C135.104 83.2675 127.257 59.7234 104.366 47.6242L107.268 42.9235L91.7224 42.8282L100.442 54.8181L103.058 50.4036C103.058 50.4036 126.275 61.6853 126.275 87.3552C126.275 113.025 100.769 129.048 82.1294 129.048C63.4912 129.048 47.6868 121.854 38.7481 107.139Z" fill="white"/>
<path d="M42.2362 105.831C42.2362 105.831 28.1751 42.3924 20 25.3883L110.253 11L112.379 19.0115L108.291 12.5262L27.6304 27.7863C27.6304 27.7863 43.5441 68.3345 42.2362 105.831Z" fill="white"/>
<path d="M85.6352 33.9038C86.0095 36.5791 84.1091 39.0559 81.3911 39.4367L46.1528 44.3707C43.4351 44.7518 40.9279 42.8913 40.5536 40.2164C40.1793 37.5407 42.0787 35.0635 44.7963 34.6827L80.0347 29.7491C82.7527 29.3684 85.2606 31.2285 85.6352 33.9038Z" fill="white"/>
<path opacity="0.5" d="M91.0821 58.0715C91.4076 60.4015 89.5334 62.5895 86.8974 62.9586L52.7129 67.7454C50.0766 68.1149 47.6752 66.5249 47.3484 64.1948C47.0226 61.8648 48.895 59.6765 51.5317 59.307L85.7155 54.5209C88.3518 54.1514 90.7543 55.7411 91.0821 58.0715Z" fill="white"/>
<path opacity="0.5" d="M93.6979 72.4595C94.0234 74.7895 92.1493 76.9775 89.5133 77.3466L55.3291 82.1337C52.6924 82.5029 50.2914 80.9125 49.9642 78.5825C49.6384 76.2525 51.5108 74.0642 54.1475 73.695L88.3313 68.9086C90.9677 68.5394 93.3711 70.1291 93.6979 72.4595Z" fill="white"/>
<path opacity="0.5" d="M96.3138 87.9381C96.6393 90.2678 94.7658 92.4557 92.1291 92.8252L57.945 97.612C55.3086 97.9815 52.9072 96.3908 52.5804 94.0611C52.2546 91.7311 54.1271 89.5424 56.7638 89.1733L90.9476 84.3865C93.5839 84.0177 95.987 85.6077 96.3138 87.9381Z" fill="white"/>
</svg>
