<svg width="76" height="87" viewBox="0 0 76 87" fill="none" xmlns="http://www.w3.org/2000/svg">
<path d="M11.7175 60.0869C11.7175 60.0869 17.9848 69.6243 35.4253 69.6243C52.8655 69.6243 62.6756 57.0893 62.6756 45.644C62.6756 34.199 53.5634 27.5571 52.4736 26.4668L50.3788 30.1456L41.9222 18.6494H56.8164L55.0792 22.1749C55.0792 22.1749 75.4147 31.6785 75.4147 52.5249C75.4147 73.3714 57.4294 86.8603 39.8528 86.8603C34.5391 86.8603 25.9554 84.6122 24.5249 83.5902C24.5249 83.5902 34.0283 84.4587 36.4809 84.4587C50.9915 84.4587 71.9402 72.1452 71.9402 52.8314C71.9402 45.1672 67.0355 30.4521 52.7289 22.8901L54.5427 19.9522L44.8265 19.8926L50.2761 27.3863L51.9114 24.6272C51.9114 24.6272 66.422 31.6783 66.422 47.722C66.422 63.7657 50.4808 73.7799 38.8308 73.7799C27.182 73.7801 17.3042 69.2839 11.7175 60.0869Z" fill="#794098"/>
<path d="M13.8976 59.2695C13.8976 59.2695 5.10943 19.6202 0 8.99267L56.4084 0L57.7366 5.0072L55.182 0.953847L4.769 10.4914C4.769 10.4914 14.7151 35.8341 13.8976 59.2695Z" fill="#794098"/>
<path d="M41.0221 14.3149C41.256 15.9869 40.0682 17.535 38.3695 17.7729L16.3455 20.8567C14.647 21.0949 13.08 19.9321 12.8461 18.2602C12.6121 16.588 13.7993 15.0397 15.4978 14.8017L37.5217 11.7182C39.2205 11.4802 40.7879 12.6428 41.0221 14.3149Z" fill="#794098"/>
<path opacity="0.5" d="M44.4264 29.4197C44.6298 30.8759 43.4585 32.2434 41.811 32.4741L20.4457 35.4659C18.798 35.6968 17.2971 34.703 17.0928 33.2468C16.8892 31.7905 18.0595 30.4228 19.7074 30.1919L41.0723 27.2006C42.72 26.9696 44.2215 27.9632 44.4264 29.4197Z" fill="#794098"/>
<path opacity="0.5" d="M46.0612 38.4122C46.2646 39.8685 45.0933 41.2359 43.4458 41.4667L22.0807 44.4586C20.4327 44.6893 18.9321 43.6953 18.7276 42.2391C18.524 40.7828 19.6942 39.4151 21.3422 39.1844L42.7071 36.1929C44.3548 35.9622 45.8569 36.9557 46.0612 38.4122Z" fill="#794098"/>
<path opacity="0.5" d="M47.6962 48.0863C47.8996 49.5424 46.7287 50.9099 45.0808 51.1408L23.7157 54.1325C22.068 54.3635 20.5671 53.3693 20.3629 51.9132C20.1592 50.4569 21.3295 49.089 22.9774 48.8583L44.3423 45.8666C45.99 45.6361 47.492 46.6298 47.6962 48.0863Z" fill="#794098"/>
</svg>
