<svg width="133" height="127" viewBox="0 0 133 127" fill="none" xmlns="http://www.w3.org/2000/svg">
<path opacity="0.2" d="M104.626 62.4541C104.626 65.7889 100.529 68.5375 99.7086 71.6117C98.8619 74.7901 101.005 79.2191 99.396 82.0002C97.7611 84.8269 92.8437 85.1656 90.551 87.4583C88.2584 89.7509 87.9197 94.6684 85.093 96.3032C82.3119 97.9119 77.8829 95.7691 74.7044 96.6158C71.6302 97.4365 68.8817 101.533 65.5469 101.533C62.2122 101.533 59.4636 97.4365 56.3894 96.6158C53.2109 95.7691 48.782 97.9119 46.0008 96.3032C43.1741 94.6684 42.8354 89.7509 40.5428 87.4583C38.2501 85.1656 33.3327 84.8269 31.6979 82.0002C30.0891 79.2191 32.2319 74.7901 31.3852 71.6117C30.5646 68.5375 26.4678 65.7889 26.4678 62.4541C26.4678 59.1194 30.5646 56.3708 31.3852 53.2966C32.2319 50.1182 30.0891 45.6892 31.6979 42.9081C33.3327 40.0813 38.2501 39.7426 40.5428 37.45C42.8354 35.1574 43.1741 30.2399 46.0008 28.6051C48.782 26.9963 53.2109 29.1392 56.3894 28.2925C59.4636 27.4718 62.2122 23.375 65.5469 23.375C68.8817 23.375 71.6302 27.4718 74.7044 28.2925C77.8829 29.1392 82.3119 26.9963 85.093 28.6051C87.9197 30.2399 88.2584 35.1574 90.551 37.45C92.8437 39.7426 97.7611 40.0813 99.396 42.9081C101.005 45.6892 98.8619 50.1182 99.7086 53.2966C100.529 56.3708 104.626 59.1194 104.626 62.4541Z" fill="#F9E01A"/>
<path d="M98.2596 62.4535C98.2596 65.2449 94.8303 67.5456 94.1434 70.1189C93.4347 72.7794 95.2283 76.4867 93.8817 78.8146C92.5133 81.1808 88.3971 81.4643 86.478 83.3833C84.559 85.3024 84.2755 89.4186 81.9094 90.787C79.5814 92.1336 75.8741 90.3399 73.2136 91.0487C70.6403 91.7356 68.3396 95.1648 65.5482 95.1648C62.7569 95.1648 60.4562 91.7356 57.8829 91.0487C55.2224 90.3399 51.5151 92.1336 49.1871 90.787C46.821 89.4186 46.5375 85.3024 44.6184 83.3833C42.6994 81.4643 38.5832 81.1808 37.2148 78.8146C35.8682 76.4867 37.6618 72.7794 36.9531 70.1189C36.2662 67.5456 32.8369 65.2449 32.8369 62.4535C32.8369 59.6622 36.2662 57.3615 36.9531 54.7882C37.6618 52.1276 35.8682 48.4204 37.2148 46.0924C38.5832 43.7263 42.6994 43.4428 44.6184 41.5237C46.5375 39.6047 46.821 35.4885 49.1871 34.1201C51.5151 32.7734 55.2224 34.5671 57.8829 33.8584C60.4562 33.1714 62.7569 29.7422 65.5482 29.7422C68.3396 29.7422 70.6403 33.1714 73.2136 33.8584C75.8741 34.5671 79.5814 32.7734 81.9094 34.1201C84.2755 35.4885 84.559 39.6047 86.478 41.5237C88.3971 43.4428 92.5133 43.7263 93.8817 46.0924C95.2283 48.4204 93.4347 52.1276 94.1434 54.7882C94.8303 57.3615 98.2596 59.6622 98.2596 62.4535Z" fill="#F9E01A"/>
<path d="M62.956 72.2362L79.4425 55.7497C80.2857 54.8774 80.2857 53.5108 79.4425 52.6676C78.5993 51.8243 77.2036 51.8243 76.3603 52.6676L61.4149 67.613L54.7272 60.9254C53.884 60.0821 52.4883 60.0821 51.6451 60.9254C50.8019 61.7686 50.8019 63.1643 51.6451 64.0075L59.8738 72.2362C60.2809 72.6433 60.8334 72.8759 61.4149 72.8759C61.9964 72.8759 62.5489 72.6433 62.956 72.2362Z" fill="#262626"/>
<circle opacity="0.7" cx="112.999" cy="45.7046" r="4.18705" fill="#F9E01A"/>
<ellipse opacity="0.7" cx="39.0287" cy="106.418" rx="2.79137" ry="2.79137" fill="#F9E01A"/>
<circle opacity="0.7" cx="24.3745" cy="23.3745" r="4.18705" fill="#F9E01A"/>
<ellipse cx="76.7121" cy="110.605" rx="1.39568" ry="1.39568" fill="#F9E01A"/>
<circle opacity="0.5" cx="108.811" cy="91.7615" r="2.09353" fill="#F9E01A"/>
<circle opacity="0.5" cx="18.0935" cy="64.5467" r="2.09353" fill="#F9E01A"/>
<circle opacity="0.5" cx="80.2019" cy="17.0935" r="2.09353" fill="#F9E01A"/>
</svg>
