<svg width="86" height="86" viewBox="0 0 86 86" fill="none" xmlns="http://www.w3.org/2000/svg">
<rect x="11" y="11" width="64" height="64" rx="32" fill="#FF3B30" fill-opacity="0.1"/>
<rect x="5.5" y="5.5" width="75" height="75" rx="37.5" stroke="#FF3B30" stroke-opacity="0.05" stroke-width="11"/>
<path d="M58 32.9666C52.45 32.4166 46.8667 32.1333 41.3 32.1333C38 32.1333 34.7 32.3 31.4 32.6333L28 32.9666" stroke="#FF3B30" stroke-width="2.5" stroke-linecap="round" stroke-linejoin="round"/>
<path d="M37.167 31.2833L37.5337 29.1C37.8003 27.5167 38.0003 26.3333 40.817 26.3333H45.1837C48.0003 26.3333 48.217 27.5833 48.467 29.1167L48.8337 31.2833" stroke="#FF3B30" stroke-width="2.5" stroke-linecap="round" stroke-linejoin="round"/>
<path d="M54.4173 38.2332L53.334 55.0165C53.1507 57.6332 53.0006 59.6665 48.3506 59.6665H37.6507C33.0007 59.6665 32.8507 57.6332 32.6673 55.0165L31.584 38.2332" stroke="#FF3B30" stroke-width="2.5" stroke-linecap="round" stroke-linejoin="round"/>
<path d="M40.2168 50.5H45.7668" stroke="#FF3B30" stroke-width="2.5" stroke-linecap="round" stroke-linejoin="round"/>
<path d="M38.833 43.8333H47.1663" stroke="#FF3B30" stroke-width="2.5" stroke-linecap="round" stroke-linejoin="round"/>
</svg>
